Results
version=1
nRows=4
nColumns=85
inDegrees=yes
endheader
time	thorax_sagittal	thorax_frontal	thorax_horizontal	thorax_transx	thorax_transy	thorax_transz	cervix_sagittal	cervix_frontal	cervix_horizontal	caput_sagittal	caput_frontal	caput_horizontal	abdomen_sagittal	abdomen_frontal	abdomen_horizontal	cauda_sagittal	cauda_frontal	cauda_horizontal	left_r_m_superioris_sagittal	left_r_m_superioris_frontal	left_r_m_superioris_horizontal	left_r_m_superioris_transx	left_r_m_superioris_transy	left_r_m_superioris_transz	left_r_deltoidea_sagittal	left_r_deltoidea_frontal	left_r_deltoidea_horizontal	left_r_cubitalis_sagittal	left_r_cubitalis_frontal	left_r_cubitalis_horizontal	left_r_carpalis_sagittal	left_r_carpalis_frontal	left_r_carpalis_horizontal	left_r_forepaw_sagittal	left_r_forepaw_frontal	left_r_forepaw_horizontal	right_r_m_superioris_sagittal	right_r_m_superioris_frontal	right_r_m_superioris_horizontal	right_r_m_superioris_transx	right_r_m_superioris_transy	right_r_m_superioris_transz	right_r_deltoidea_sagittal	right_r_deltoidea_frontal	right_r_deltoidea_horizontal	right_r_cubitalis_sagittal	right_r_cubitalis_frontal	right_r_cubitalis_horizontal	right_r_carpalis_sagittal	right_r_carpalis_frontal	right_r_carpalis_horizontal	right_r_forepaw_sagittal	right_r_forepaw_frontal	right_r_forepaw_horizontal	m_inferioris_sagittal	m_inferioris_frontal	m_inferioris_horizontal	m_inferioris_transx	m_inferioris_transy	m_inferioris_transz	left_r_coxae_sagittal	left_r_coxae_frontal	left_r_coxae_horizontal	left_r_genus_sagittal	left_r_genus_frontal	left_r_genus_horizontal	left_r_talocruralis_sagittal	left_r_talocruralis_frontal	left_r_talocruralis_horizontal	left_r_hindpaw_sagittal	left_r_hindpaw_frontal	left_r_hindpaw_horizontal	right_r_coxae_sagittal	right_r_coxae_frontal	right_r_coxae_horizontal	right_r_genus_sagittal	right_r_genus_frontal	right_r_genus_horizontal	right_r_talocruralis_sagittal	right_r_talocruralis_frontal	right_r_talocruralis_horizontal	right_r_hindpaw_sagittal	right_r_hindpaw_frontal	right_r_hindpaw_horizontal
      4.92266667	    -99.35384174	     15.77188898	    -22.82806010	     -0.54914604	      0.32740202	     -4.58556647	     50.30465086	     -2.02482589	     10.23897148	    -12.84353972	      5.31991201	    -41.07998035	      7.08355998	     -7.43345985	    -10.19837507	      3.55206760	     -5.59930258	      0.32448089	    -20.20337127	    -40.38831757	     -1.03174594	      0.04729165	     -0.17165054	      0.06608237	     89.41083162	     -2.96926374	    -27.88268859	    -38.76492654	     24.84257362	     17.72300285	    -34.86692160	     15.29836373	      0.80000000	      0.00000000	      0.00000000	      0.00000000	    -25.25516367	     27.17275663	      3.19619922	     -0.01586573	     -0.16638016	      0.04818312	     82.68479982	    -10.37857428	     27.02494719	    -72.51740027	    -19.15459273	     -9.73802771	    -12.56485500	    -10.67285573	      0.80000000	      0.00000000	      0.00000000	      0.00000000	     33.69241602	     -2.84477980	     -0.64150301	     -0.00484025	     -0.06927529	      0.01867165	    -99.22872185	    -13.30745093	      4.41050194	     88.27307516	     13.51629008	     -3.77278865	    -63.73907248	      7.92029071	      2.30000000	      0.00000000	      0.00000000	      0.00000000	    -57.08510476	      1.50471108	      4.65110925	    100.42658399	      1.36216029	      4.24895348	    -69.54840409	     -2.56774848	      2.30000000	      0.00000000	      0.00000000	      0.00000000
      4.93933333	    -98.43335076	     15.59490757	    -23.10599847	     -0.55155878	      0.32999297	     -4.57460798	     47.72865048	     -2.76096892	      8.47422844	    -13.01230329	      5.53219179	    -40.22538753	      4.60602212	     -7.03274882	     -9.30686235	      4.21095339	     -5.72717611	     -0.15136966	    -22.14185223	    -41.33727310	     -1.25744348	      0.04497782	     -0.17355622	      0.06624168	     92.35319178	     -3.19454213	    -27.14285927	    -40.56021911	     23.99157629	     17.23305366	    -28.87390448	     13.82280664	      0.80000000	      0.00000000	      0.00000000	      0.00000000	    -26.26295133	     27.31050595	      4.23199510	     -0.01710268	     -0.16831777	      0.04970189	     82.15665413	     -9.46998666	     28.17752416	    -70.20835454	    -20.30129428	    -10.29071765	    -14.49275197	     -9.75229575	      0.80000000	      0.00000000	      0.00000000	      0.00000000	     34.31580742	     -3.21409300	     -0.99619104	     -0.00569735	     -0.06980615	      0.01861911	    -98.48078506	    -13.53302869	      4.88432292	     84.63351974	     13.90743183	     -2.84747881	    -60.85121907	      6.69978206	      2.30000000	      0.00000000	      0.00000000	      0.00000000	    -54.62018713	      1.98533493	      4.33810239	     99.47519699	      1.02760040	      4.12645002	    -67.73246458	     -2.40677305	      2.30000000	      0.00000000	      0.00000000	      0.00000000
      4.95600000	    -97.53205924	     14.43961398	    -23.65190247	     -0.55273282	      0.32936843	     -4.56418902	     42.46951262	     -6.23291149	      8.66108394	    -10.23103488	      3.10341590	    -41.13014425	      2.38087871	     -6.48831060	     -8.63344263	      4.87464095	     -5.50953686	     -0.33498051	    -25.17291068	    -39.34710867	     -1.95436617	      0.04525447	     -0.17481273	      0.06914400	     99.35991676	     -3.86084907	    -23.03994537	    -54.47404457	     24.47438791	     17.52349120	      1.69539136	      0.66300833	      0.80000000	      0.00000000	      0.00000000	      0.00000000	    -28.31667706	     28.93498861	      4.94911320	     -0.01759705	     -0.17122124	      0.05366510	     83.47520584	     -8.90210387	     29.10248421	    -67.30523185	    -20.91791800	    -10.36140582	    -18.31731953	    -12.04620293	      0.80000000	      0.00000000	      0.00000000	      0.00000000	     34.93878120	     -3.10584169	     -1.30897006	     -0.00651476	     -0.07070416	      0.01852245	    -98.17286116	    -13.83215280	      4.98547756	     82.23820844	     14.01682122	     -2.48264957	    -58.72175850	      6.18266070	      2.30000000	      0.00000000	      0.00000000	      0.00000000	    -52.68653662	      1.84448773	      4.31063527	     98.48230840	      0.96825067	      3.93466979	    -66.97998476	     -2.18725207	      2.30000000	      0.00000000	      0.00000000	      0.00000000
      4.97266667	    -96.41971605	     13.67302690	    -25.00817412	     -0.55337246	      0.32801722	     -4.55349987	     37.23813010	     -9.46792092	     10.15863393	     -7.35131702	      0.57234663	    -42.18674493	      0.63526375	     -6.06332903	     -6.26611000	      5.32579375	     -5.38485584	     -0.37392253	    -26.55867582	    -38.76259314	     -0.52689374	      0.04574749	     -0.17595159	      0.07346063	    100.95520975	     -2.06970657	    -20.80886517	    -66.55171235	     25.46998769	     17.54007834	     33.19319916	    -14.23954982	      0.80000000	      0.00000000	      0.00000000	      0.00000000	    -29.34153711	     28.67423764	      5.98290430	     -0.01805007	     -0.17457374	      0.05881282	     84.95608782	     -7.88526585	     29.13295453	    -67.28011850	    -21.23225895	    -10.95000917	    -18.50958940	    -10.30400768	      0.80000000	      0.00000000	      0.00000000	      0.00000000	     35.41680095	     -3.03143195	     -1.44353849	     -0.00706866	     -0.07094495	      0.01822712	    -97.15794291	    -13.83050879	      5.05919521	     79.91504052	     14.06629560	     -1.88977882	    -55.83332528	      5.34684134	      2.30000000	      0.00000000	      0.00000000	      0.00000000	    -51.48934320	      1.90095789	      3.56126207	     97.88081773	      0.15762712	      3.66708712	    -64.43535680	     -1.85958795	      2.30000000	      0.00000000	      0.00000000	      0.00000000
